M48
; DRILL file {KiCad 9.0.7} date 2026-05-05T08:21:01-0700
; FORMAT={-:-/ absolute / metric / decimal}
; #@! TF.CreationDate,2026-05-05T08:21:01-07:00
; #@! TF.GenerationSoftware,Kicad,Pcbnew,9.0.7
; #@! TF.FileFunction,Plated,1,2,PTH
FMAT,2
METRIC
; #@! TA.AperFunction,Plated,PTH,ComponentDrill
T1C0.800
; #@! TA.AperFunction,Plated,PTH,ComponentDrill
T2C0.900
; #@! TA.AperFunction,Plated,PTH,ComponentDrill
T3C1.000
; #@! TA.AperFunction,Plated,PTH,ComponentDrill
T4C1.100
; #@! TA.AperFunction,Plated,PTH,ComponentDrill
T5C1.250
; #@! TA.AperFunction,Plated,PTH,ComponentDrill
T6C1.300
; #@! TA.AperFunction,Plated,PTH,ComponentDrill
T7C4.300
%
G90
G05
T1
X51.42Y-55.05
X51.42Y-85.05
X51.42Y-115.05
X51.42Y-145.05
X51.42Y-175.05
X61.58Y-55.05
X61.58Y-85.05
X61.58Y-115.05
X61.58Y-145.05
X61.58Y-175.05
X81.537Y-55.05
X81.537Y-85.12
X81.537Y-115.05
X81.537Y-145.05
X81.537Y-175.05
X91.697Y-55.05
X91.697Y-85.12
X91.697Y-115.05
X91.697Y-145.05
X91.697Y-175.05
X111.653Y-55.05
X111.653Y-85.05
X111.653Y-115.125
X111.653Y-145.05
X111.653Y-175.05
X113.25Y-189.715
X113.25Y-199.875
X117.25Y-189.715
X117.25Y-199.875
X120.25Y-189.715
X120.25Y-199.875
X121.813Y-55.05
X121.813Y-85.05
X121.813Y-115.125
X121.813Y-145.05
X121.813Y-175.05
X123.25Y-189.715
X123.25Y-199.875
X127.25Y-189.715
X127.25Y-199.875
X130.25Y-189.715
X130.25Y-199.875
X133.25Y-189.715
X133.25Y-199.875
X137.25Y-189.715
X137.25Y-199.875
X140.25Y-189.715
X140.25Y-199.875
X141.42Y-55.125
X141.77Y-85.069
X141.77Y-115.087
X141.77Y-145.106
X141.77Y-175.125
X143.25Y-189.715
X143.25Y-199.875
X147.25Y-189.715
X147.25Y-199.875
X150.25Y-189.715
X150.25Y-199.875
X151.58Y-55.125
X151.93Y-85.069
X151.93Y-115.087
X151.93Y-145.106
X151.93Y-175.125
X153.25Y-189.715
X153.25Y-199.875
T2
X65.96Y-55.05
X65.96Y-85.05
X65.96Y-115.05
X65.96Y-145.05
X65.96Y-175.05
X68.5Y-55.05
X68.5Y-85.05
X68.5Y-115.05
X68.5Y-145.05
X68.5Y-175.05
X96.077Y-55.05
X96.077Y-85.12
X96.077Y-115.05
X96.077Y-145.05
X96.077Y-175.05
X98.617Y-55.05
X98.617Y-85.12
X98.617Y-115.05
X98.617Y-145.05
X98.617Y-175.05
X113.21Y-223.295
X115.75Y-223.295
X123.21Y-205.795
X123.21Y-213.295
X123.21Y-223.295
X125.75Y-205.795
X125.75Y-213.295
X125.75Y-223.295
X126.193Y-55.05
X126.193Y-85.05
X126.193Y-115.125
X126.193Y-145.05
X126.193Y-175.05
X128.733Y-55.05
X128.733Y-85.05
X128.733Y-115.125
X128.733Y-145.05
X128.733Y-175.05
X133.21Y-205.795
X133.21Y-213.295
X133.21Y-223.295
X135.75Y-205.795
X135.75Y-213.295
X135.75Y-223.295
X143.21Y-205.795
X143.21Y-213.295
X143.21Y-223.295
X145.75Y-205.795
X145.75Y-213.295
X145.75Y-223.295
X153.21Y-205.795
X153.21Y-213.295
X153.21Y-223.295
X155.75Y-205.795
X155.75Y-213.295
X155.75Y-223.295
X155.96Y-55.125
X156.31Y-85.069
X156.31Y-115.087
X156.31Y-145.106
X156.31Y-175.125
X158.5Y-55.125
X158.85Y-85.069
X158.85Y-115.087
X158.85Y-145.106
X158.85Y-175.125
T4
X47.5Y-69.815
X47.5Y-77.435
X47.5Y-129.815
X47.5Y-137.435
X65.19Y-62.625
X65.19Y-122.555
X72.81Y-62.625
X72.81Y-122.555
X73.0Y-39.74
X73.0Y-47.36
X73.0Y-69.74
X73.0Y-77.36
X73.0Y-99.74
X73.0Y-107.36
X73.0Y-129.74
X73.0Y-137.36
X73.0Y-159.74
X73.0Y-167.36
X95.307Y-62.555
X95.307Y-122.555
X102.927Y-62.555
X102.927Y-122.555
X103.117Y-39.74
X103.117Y-47.36
X103.117Y-69.81
X103.117Y-77.43
X103.117Y-99.74
X103.117Y-107.36
X103.117Y-129.74
X103.117Y-137.36
X103.117Y-159.74
X103.117Y-167.36
X125.423Y-62.574
X125.423Y-122.611
X133.043Y-62.574
X133.043Y-122.611
X133.233Y-39.74
X133.233Y-47.36
X133.233Y-69.74
X133.233Y-77.36
X133.233Y-99.815
X133.233Y-107.435
X133.233Y-129.74
X133.233Y-137.36
X133.233Y-159.74
X133.233Y-167.36
X163.0Y-39.815
X163.0Y-47.435
X163.35Y-69.759
X163.35Y-77.379
X163.35Y-99.777
X163.35Y-107.397
X163.35Y-129.796
X163.35Y-137.416
X163.35Y-159.815
X163.35Y-167.435
T6
X54.8Y-49.55
X54.8Y-79.55
X54.8Y-109.55
X54.8Y-139.55
X54.8Y-169.55
X54.85Y-37.5
X54.85Y-67.5
X54.85Y-97.5
X54.85Y-127.5
X54.85Y-157.5
X67.05Y-37.5
X67.05Y-49.5
X67.05Y-67.5
X67.05Y-79.5
X67.05Y-97.5
X67.05Y-109.5
X67.05Y-127.5
X67.05Y-139.5
X67.05Y-157.5
X67.05Y-169.5
X69.0Y-43.55
X69.0Y-73.55
X69.0Y-103.55
X69.0Y-133.55
X69.0Y-163.55
X84.917Y-49.55
X84.917Y-79.62
X84.917Y-109.55
X84.917Y-139.55
X84.917Y-169.55
X84.967Y-37.5
X84.967Y-67.57
X84.967Y-97.5
X84.967Y-127.5
X84.967Y-157.5
X97.167Y-37.5
X97.167Y-49.5
X97.167Y-67.57
X97.167Y-79.57
X97.167Y-97.5
X97.167Y-109.5
X97.167Y-127.5
X97.167Y-139.5
X97.167Y-157.5
X97.167Y-169.5
X99.117Y-43.55
X99.117Y-73.62
X99.117Y-103.55
X99.117Y-133.55
X99.117Y-163.55
X115.033Y-49.55
X115.033Y-79.55
X115.033Y-109.625
X115.033Y-139.55
X115.033Y-169.55
X115.083Y-37.5
X115.083Y-67.5
X115.083Y-97.575
X115.083Y-127.5
X115.083Y-157.5
X127.283Y-37.5
X127.283Y-49.5
X127.283Y-67.5
X127.283Y-79.5
X127.283Y-97.575
X127.283Y-109.575
X127.283Y-127.5
X127.283Y-139.5
X127.283Y-157.5
X127.283Y-169.5
X129.233Y-43.55
X129.233Y-73.55
X129.233Y-103.625
X129.233Y-133.55
X129.233Y-163.55
X144.8Y-49.625
X144.85Y-37.575
X145.15Y-79.569
X145.15Y-109.587
X145.15Y-139.606
X145.15Y-169.625
X145.2Y-67.519
X145.2Y-97.537
X145.2Y-127.556
X145.2Y-157.575
X157.05Y-37.575
X157.05Y-49.575
X157.4Y-67.519
X157.4Y-79.519
X157.4Y-97.537
X157.4Y-109.537
X157.4Y-127.556
X157.4Y-139.556
X157.4Y-157.575
X157.4Y-169.575
X159.0Y-43.625
X159.35Y-73.569
X159.35Y-103.587
X159.35Y-133.606
X159.35Y-163.625
T7
X43.0Y-27.5
X43.0Y-222.5
X168.0Y-27.5
X168.0Y-222.5
T3
X52.8Y-28.0G85X52.8Y-30.0
G05
X58.5Y-26.0G85X56.5Y-26.0
G05
X58.5Y-32.0G85X56.5Y-32.0
G05
T5
X58.375Y-195.5G85X59.625Y-195.5
G05
X58.375Y-200.0G85X59.625Y-200.0
G05
X58.375Y-204.5G85X59.625Y-204.5
G05
X58.375Y-209.5G85X59.625Y-209.5
G05
X58.375Y-214.0G85X59.625Y-214.0
G05
X58.375Y-218.5G85X59.625Y-218.5
G05
X67.375Y-195.5G85X68.625Y-195.5
G05
X67.375Y-200.0G85X68.625Y-200.0
G05
X67.375Y-204.5G85X68.625Y-204.5
G05
X67.375Y-209.5G85X68.625Y-209.5
G05
X67.375Y-214.0G85X68.625Y-214.0
G05
X67.375Y-218.5G85X68.625Y-218.5
G05
X76.375Y-195.5G85X77.625Y-195.5
G05
X76.375Y-200.0G85X77.625Y-200.0
G05
X76.375Y-204.5G85X77.625Y-204.5
G05
X76.375Y-209.5G85X77.625Y-209.5
G05
X76.375Y-214.0G85X77.625Y-214.0
G05
X76.375Y-218.5G85X77.625Y-218.5
G05
X85.375Y-195.5G85X86.625Y-195.5
G05
X85.375Y-200.0G85X86.625Y-200.0
G05
X85.375Y-204.5G85X86.625Y-204.5
G05
X85.375Y-209.5G85X86.625Y-209.5
G05
X85.375Y-214.0G85X86.625Y-214.0
G05
X85.375Y-218.5G85X86.625Y-218.5
G05
X94.375Y-202.5G85X95.625Y-202.5
G05
X94.375Y-207.0G85X95.625Y-207.0
G05
X94.375Y-211.5G85X95.625Y-211.5
G05
M30
