%TF.GenerationSoftware,KiCad,Pcbnew,9.0.7*%
%TF.CreationDate,2026-05-05T08:20:23-07:00*%
%TF.ProjectId,Relay Computer,52656c61-7920-4436-9f6d-70757465722e,rev?*%
%TF.SameCoordinates,Original*%
%TF.FileFunction,Soldermask,Top*%
%TF.FilePolarity,Negative*%
%FSLAX46Y46*%
G04 Gerber Fmt 4.6, Leading zero omitted, Abs format (unit mm)*
G04 Created by KiCad (PCBNEW 9.0.7) date 2026-05-05 08:20:23*
%MOMM*%
%LPD*%
G01*
G04 APERTURE LIST*
G04 Aperture macros list*
%AMRoundRect*
0 Rectangle with rounded corners*
0 $1 Rounding radius*
0 $2 $3 $4 $5 $6 $7 $8 $9 X,Y pos of 4 corners*
0 Add a 4 corners polygon primitive as box body*
4,1,4,$2,$3,$4,$5,$6,$7,$8,$9,$2,$3,0*
0 Add four circle primitives for the rounded corners*
1,1,$1+$1,$2,$3*
1,1,$1+$1,$4,$5*
1,1,$1+$1,$6,$7*
1,1,$1+$1,$8,$9*
0 Add four rect primitives between the rounded corners*
20,1,$1+$1,$2,$3,$4,$5,0*
20,1,$1+$1,$4,$5,$6,$7,0*
20,1,$1+$1,$6,$7,$8,$9,0*
20,1,$1+$1,$8,$9,$2,$3,0*%
G04 Aperture macros list end*
%ADD10C,3.000000*%
%ADD11O,4.000000X2.750000*%
%ADD12R,3.500000X3.500000*%
%ADD13RoundRect,0.750000X-1.000000X0.750000X-1.000000X-0.750000X1.000000X-0.750000X1.000000X0.750000X0*%
%ADD14RoundRect,0.875000X-0.875000X0.875000X-0.875000X-0.875000X0.875000X-0.875000X0.875000X0.875000X0*%
%ADD15RoundRect,0.249999X-0.850001X-0.850001X0.850001X-0.850001X0.850001X0.850001X-0.850001X0.850001X0*%
%ADD16C,2.200000*%
%ADD17R,1.800000X1.800000*%
%ADD18C,1.800000*%
%ADD19C,8.600000*%
%ADD20RoundRect,0.249999X0.850001X-0.850001X0.850001X0.850001X-0.850001X0.850001X-0.850001X-0.850001X0*%
%ADD21C,1.600000*%
G04 APERTURE END LIST*
D10*
%TO.C,K19*%
X129233333Y-163550000D03*
X127283333Y-157500000D03*
X115083333Y-157500000D03*
X115033333Y-169550000D03*
X127283333Y-169500000D03*
%TD*%
D11*
%TO.C,SW6*%
X59000000Y-209500000D03*
X59000000Y-214000000D03*
X59000000Y-218500000D03*
%TD*%
%TO.C,SW9*%
X86000000Y-209500000D03*
X86000000Y-214000000D03*
X86000000Y-218500000D03*
%TD*%
%TO.C,SW3*%
X77000000Y-195500000D03*
X77000000Y-200000000D03*
X77000000Y-204500000D03*
%TD*%
%TO.C,SW5*%
X95000000Y-202500000D03*
X95000000Y-207000000D03*
X95000000Y-211500000D03*
%TD*%
%TO.C,SW2*%
X68000000Y-195500000D03*
X68000000Y-200000000D03*
X68000000Y-204500000D03*
%TD*%
%TO.C,SW8*%
X77000000Y-209500000D03*
X77000000Y-214000000D03*
X77000000Y-218500000D03*
%TD*%
%TO.C,SW1*%
X59000000Y-195500000D03*
X59000000Y-200000000D03*
X59000000Y-204500000D03*
%TD*%
%TO.C,SW4*%
X86000000Y-195500000D03*
X86000000Y-200000000D03*
X86000000Y-204500000D03*
%TD*%
D12*
%TO.C,J1*%
X57500000Y-32000000D03*
D13*
X57500000Y-26000000D03*
D14*
X52800000Y-29000000D03*
%TD*%
D15*
%TO.C,D32*%
X125423333Y-122611250D03*
D16*
X133043333Y-122611250D03*
%TD*%
D17*
%TO.C,D59*%
X125750000Y-223295000D03*
D18*
X123210000Y-223295000D03*
%TD*%
D19*
%TO.C,H3*%
X43000000Y-222500000D03*
%TD*%
D20*
%TO.C,D36*%
X163350000Y-137416250D03*
D16*
X163350000Y-129796250D03*
%TD*%
D10*
%TO.C,K5*%
X69000000Y-73550000D03*
X67050000Y-67500000D03*
X54850000Y-67500000D03*
X54800000Y-79550000D03*
X67050000Y-79500000D03*
%TD*%
%TO.C,K10*%
X99116667Y-103550000D03*
X97166667Y-97500000D03*
X84966667Y-97500000D03*
X84916667Y-109550000D03*
X97166667Y-109500000D03*
%TD*%
D20*
%TO.C,D42*%
X103116667Y-167360000D03*
D16*
X103116667Y-159740000D03*
%TD*%
D20*
%TO.C,D9*%
X47500000Y-77435000D03*
D16*
X47500000Y-69815000D03*
%TD*%
D20*
%TO.C,D24*%
X163350000Y-107397500D03*
D16*
X163350000Y-99777500D03*
%TD*%
D17*
%TO.C,D19*%
X126193333Y-85050000D03*
D18*
X128733333Y-85050000D03*
%TD*%
D17*
%TO.C,D38*%
X96076667Y-145050000D03*
D18*
X98616667Y-145050000D03*
%TD*%
D20*
%TO.C,D44*%
X163350000Y-167435000D03*
D16*
X163350000Y-159815000D03*
%TD*%
D17*
%TO.C,D8*%
X155960000Y-55125000D03*
D18*
X158500000Y-55125000D03*
%TD*%
D17*
%TO.C,D7*%
X126193333Y-55050000D03*
D18*
X128733333Y-55050000D03*
%TD*%
D21*
%TO.C,R1*%
X51420000Y-55050000D03*
X61580000Y-55050000D03*
%TD*%
D20*
%TO.C,D23*%
X133233333Y-107435000D03*
D16*
X133233333Y-99815000D03*
%TD*%
D17*
%TO.C,D57*%
X155750000Y-213295000D03*
D18*
X153210000Y-213295000D03*
%TD*%
D10*
%TO.C,K7*%
X129233333Y-73550000D03*
X127283333Y-67500000D03*
X115083333Y-67500000D03*
X115033333Y-79550000D03*
X127283333Y-79500000D03*
%TD*%
D17*
%TO.C,D54*%
X125750000Y-213295000D03*
D18*
X123210000Y-213295000D03*
%TD*%
D17*
%TO.C,D25*%
X65960000Y-115050000D03*
D18*
X68500000Y-115050000D03*
%TD*%
D17*
%TO.C,D50*%
X135750000Y-205795000D03*
D18*
X133210000Y-205795000D03*
%TD*%
D20*
%TO.C,D13*%
X73000000Y-77360000D03*
D16*
X73000000Y-69740000D03*
%TD*%
D20*
%TO.C,D3*%
X133233333Y-47360000D03*
D16*
X133233333Y-39740000D03*
%TD*%
D21*
%TO.C,R23*%
X143250000Y-189715000D03*
X143250000Y-199875000D03*
%TD*%
D17*
%TO.C,D58*%
X115750000Y-223295000D03*
D18*
X113210000Y-223295000D03*
%TD*%
D21*
%TO.C,R30*%
X113250000Y-199875000D03*
X113250000Y-189715000D03*
%TD*%
D20*
%TO.C,D16*%
X163350000Y-77378750D03*
D16*
X163350000Y-69758750D03*
%TD*%
D15*
%TO.C,D10*%
X65190000Y-62625000D03*
D16*
X72810000Y-62625000D03*
%TD*%
D21*
%TO.C,R17*%
X51420000Y-175050000D03*
X61580000Y-175050000D03*
%TD*%
D19*
%TO.C,H4*%
X168000000Y-222500000D03*
%TD*%
D17*
%TO.C,D46*%
X96076667Y-175050000D03*
D18*
X98616667Y-175050000D03*
%TD*%
D19*
%TO.C,H2*%
X168000000Y-27500000D03*
%TD*%
D10*
%TO.C,K1*%
X69000000Y-43550000D03*
X67050000Y-37500000D03*
X54850000Y-37500000D03*
X54800000Y-49550000D03*
X67050000Y-49500000D03*
%TD*%
%TO.C,K13*%
X69000000Y-133550000D03*
X67050000Y-127500000D03*
X54850000Y-127500000D03*
X54800000Y-139550000D03*
X67050000Y-139500000D03*
%TD*%
D15*
%TO.C,D12*%
X125423333Y-62573750D03*
D16*
X133043333Y-62573750D03*
%TD*%
D21*
%TO.C,R24*%
X153250000Y-189715000D03*
X153250000Y-199875000D03*
%TD*%
D17*
%TO.C,D39*%
X126193333Y-145050000D03*
D18*
X128733333Y-145050000D03*
%TD*%
D17*
%TO.C,D49*%
X125750000Y-205795000D03*
D18*
X123210000Y-205795000D03*
%TD*%
D21*
%TO.C,R21*%
X123250000Y-189715000D03*
X123250000Y-199875000D03*
%TD*%
%TO.C,R2*%
X81536667Y-55050000D03*
X91696667Y-55050000D03*
%TD*%
D15*
%TO.C,D31*%
X95306666Y-122555000D03*
D16*
X102926666Y-122555000D03*
%TD*%
D21*
%TO.C,R9*%
X51420000Y-115050000D03*
X61580000Y-115050000D03*
%TD*%
D10*
%TO.C,K9*%
X69000000Y-103550000D03*
X67050000Y-97500000D03*
X54850000Y-97500000D03*
X54800000Y-109550000D03*
X67050000Y-109500000D03*
%TD*%
D15*
%TO.C,D11*%
X95306666Y-62555000D03*
D16*
X102926666Y-62555000D03*
%TD*%
D17*
%TO.C,D17*%
X65960000Y-85050000D03*
D18*
X68500000Y-85050000D03*
%TD*%
D17*
%TO.C,D52*%
X155750000Y-205795000D03*
D18*
X153210000Y-205795000D03*
%TD*%
D17*
%TO.C,D40*%
X156310000Y-145106250D03*
D18*
X158850000Y-145106250D03*
%TD*%
D21*
%TO.C,R34*%
X147250000Y-199875000D03*
X147250000Y-189715000D03*
%TD*%
D10*
%TO.C,K4*%
X159000000Y-43625000D03*
X157050000Y-37575000D03*
X144850000Y-37575000D03*
X144800000Y-49625000D03*
X157050000Y-49575000D03*
%TD*%
D21*
%TO.C,R7*%
X111653333Y-85050000D03*
X121813333Y-85050000D03*
%TD*%
%TO.C,R31*%
X117250000Y-199875000D03*
X117250000Y-189715000D03*
%TD*%
D20*
%TO.C,D33*%
X73000000Y-137360000D03*
D16*
X73000000Y-129740000D03*
%TD*%
D20*
%TO.C,D2*%
X103116667Y-47360000D03*
D16*
X103116667Y-39740000D03*
%TD*%
D17*
%TO.C,D62*%
X155750000Y-223295000D03*
D18*
X153210000Y-223295000D03*
%TD*%
D17*
%TO.C,D5*%
X65960000Y-55050000D03*
D18*
X68500000Y-55050000D03*
%TD*%
D21*
%TO.C,R15*%
X111653333Y-145050000D03*
X121813333Y-145050000D03*
%TD*%
D17*
%TO.C,D56*%
X145750000Y-213295000D03*
D18*
X143210000Y-213295000D03*
%TD*%
D21*
%TO.C,R16*%
X141770000Y-145106250D03*
X151930000Y-145106250D03*
%TD*%
%TO.C,R6*%
X81536667Y-85120000D03*
X91696667Y-85120000D03*
%TD*%
D20*
%TO.C,D29*%
X47500000Y-137435000D03*
D16*
X47500000Y-129815000D03*
%TD*%
D20*
%TO.C,D4*%
X163000000Y-47435000D03*
D16*
X163000000Y-39815000D03*
%TD*%
D21*
%TO.C,R12*%
X141770000Y-115087500D03*
X151930000Y-115087500D03*
%TD*%
D10*
%TO.C,K12*%
X159350000Y-103587500D03*
X157400000Y-97537500D03*
X145200000Y-97537500D03*
X145150000Y-109587500D03*
X157400000Y-109537500D03*
%TD*%
D17*
%TO.C,D61*%
X145750000Y-223295000D03*
D18*
X143210000Y-223295000D03*
%TD*%
D21*
%TO.C,R28*%
X140250000Y-189715000D03*
X140250000Y-199875000D03*
%TD*%
D17*
%TO.C,D6*%
X96076667Y-55050000D03*
D18*
X98616667Y-55050000D03*
%TD*%
D10*
%TO.C,K18*%
X99116667Y-163550000D03*
X97166667Y-157500000D03*
X84966667Y-157500000D03*
X84916667Y-169550000D03*
X97166667Y-169500000D03*
%TD*%
D17*
%TO.C,D60*%
X135750000Y-223295000D03*
D18*
X133210000Y-223295000D03*
%TD*%
D17*
%TO.C,D26*%
X96076667Y-115050000D03*
D18*
X98616667Y-115050000D03*
%TD*%
D17*
%TO.C,D28*%
X156310000Y-115087500D03*
D18*
X158850000Y-115087500D03*
%TD*%
D21*
%TO.C,R19*%
X111653333Y-175050000D03*
X121813333Y-175050000D03*
%TD*%
D20*
%TO.C,D43*%
X133233333Y-167360000D03*
D16*
X133233333Y-159740000D03*
%TD*%
D21*
%TO.C,R3*%
X111653333Y-55050000D03*
X121813333Y-55050000D03*
%TD*%
%TO.C,R29*%
X150250000Y-189715000D03*
X150250000Y-199875000D03*
%TD*%
D19*
%TO.C,H1*%
X43000000Y-27500000D03*
%TD*%
D21*
%TO.C,R27*%
X130250000Y-189715000D03*
X130250000Y-199875000D03*
%TD*%
D20*
%TO.C,D35*%
X133233333Y-137360000D03*
D16*
X133233333Y-129740000D03*
%TD*%
D10*
%TO.C,K20*%
X159350000Y-163625000D03*
X157400000Y-157575000D03*
X145200000Y-157575000D03*
X145150000Y-169625000D03*
X157400000Y-169575000D03*
%TD*%
D17*
%TO.C,D27*%
X126193333Y-115125000D03*
D18*
X128733333Y-115125000D03*
%TD*%
D10*
%TO.C,K3*%
X129233333Y-43550000D03*
X127283333Y-37500000D03*
X115083333Y-37500000D03*
X115033333Y-49550000D03*
X127283333Y-49500000D03*
%TD*%
D21*
%TO.C,R22*%
X133250000Y-189715000D03*
X133250000Y-199875000D03*
%TD*%
%TO.C,R8*%
X141770000Y-85068750D03*
X151930000Y-85068750D03*
%TD*%
%TO.C,R14*%
X81536667Y-145050000D03*
X91696667Y-145050000D03*
%TD*%
%TO.C,R33*%
X137250000Y-199875000D03*
X137250000Y-189715000D03*
%TD*%
D17*
%TO.C,D37*%
X65960000Y-145050000D03*
D18*
X68500000Y-145050000D03*
%TD*%
D17*
%TO.C,D18*%
X96076667Y-85120000D03*
D18*
X98616667Y-85120000D03*
%TD*%
D21*
%TO.C,R18*%
X81536667Y-175050000D03*
X91696667Y-175050000D03*
%TD*%
D10*
%TO.C,K15*%
X129233333Y-133550000D03*
X127283333Y-127500000D03*
X115083333Y-127500000D03*
X115033333Y-139550000D03*
X127283333Y-139500000D03*
%TD*%
%TO.C,K8*%
X159350000Y-73568750D03*
X157400000Y-67518750D03*
X145200000Y-67518750D03*
X145150000Y-79568750D03*
X157400000Y-79518750D03*
%TD*%
%TO.C,K14*%
X99116667Y-133550000D03*
X97166667Y-127500000D03*
X84966667Y-127500000D03*
X84916667Y-139550000D03*
X97166667Y-139500000D03*
%TD*%
D21*
%TO.C,R5*%
X51420000Y-85050000D03*
X61580000Y-85050000D03*
%TD*%
D20*
%TO.C,D15*%
X133233333Y-77360000D03*
D16*
X133233333Y-69740000D03*
%TD*%
D20*
%TO.C,D14*%
X103116667Y-77430000D03*
D16*
X103116667Y-69810000D03*
%TD*%
D21*
%TO.C,R26*%
X120250000Y-189715000D03*
X120250000Y-199875000D03*
%TD*%
%TO.C,R32*%
X127250000Y-199875000D03*
X127250000Y-189715000D03*
%TD*%
D20*
%TO.C,D41*%
X73000000Y-167360000D03*
D16*
X73000000Y-159740000D03*
%TD*%
D17*
%TO.C,D51*%
X145750000Y-205795000D03*
D18*
X143210000Y-205795000D03*
%TD*%
D21*
%TO.C,R20*%
X141770000Y-175125000D03*
X151930000Y-175125000D03*
%TD*%
D20*
%TO.C,D21*%
X73000000Y-107360000D03*
D16*
X73000000Y-99740000D03*
%TD*%
D20*
%TO.C,D22*%
X103116667Y-107360000D03*
D16*
X103116667Y-99740000D03*
%TD*%
D21*
%TO.C,R13*%
X51420000Y-145050000D03*
X61580000Y-145050000D03*
%TD*%
D17*
%TO.C,D55*%
X135750000Y-213295000D03*
D18*
X133210000Y-213295000D03*
%TD*%
D20*
%TO.C,D34*%
X103116667Y-137360000D03*
D16*
X103116667Y-129740000D03*
%TD*%
D10*
%TO.C,K16*%
X159350000Y-133606250D03*
X157400000Y-127556250D03*
X145200000Y-127556250D03*
X145150000Y-139606250D03*
X157400000Y-139556250D03*
%TD*%
D21*
%TO.C,R10*%
X81536667Y-115050000D03*
X91696667Y-115050000D03*
%TD*%
%TO.C,R4*%
X141420000Y-55125000D03*
X151580000Y-55125000D03*
%TD*%
D10*
%TO.C,K11*%
X129233333Y-103625000D03*
X127283333Y-97575000D03*
X115083333Y-97575000D03*
X115033333Y-109625000D03*
X127283333Y-109575000D03*
%TD*%
D15*
%TO.C,D30*%
X65190000Y-122555000D03*
D16*
X72810000Y-122555000D03*
%TD*%
D17*
%TO.C,D20*%
X156310000Y-85068750D03*
D18*
X158850000Y-85068750D03*
%TD*%
D17*
%TO.C,D47*%
X126193333Y-175050000D03*
D18*
X128733333Y-175050000D03*
%TD*%
D10*
%TO.C,K2*%
X99116667Y-43550000D03*
X97166667Y-37500000D03*
X84966667Y-37500000D03*
X84916667Y-49550000D03*
X97166667Y-49500000D03*
%TD*%
D20*
%TO.C,D1*%
X73000000Y-47360000D03*
D16*
X73000000Y-39740000D03*
%TD*%
D10*
%TO.C,K6*%
X99116667Y-73620000D03*
X97166667Y-67570000D03*
X84966667Y-67570000D03*
X84916667Y-79620000D03*
X97166667Y-79570000D03*
%TD*%
D17*
%TO.C,D48*%
X156310000Y-175125000D03*
D18*
X158850000Y-175125000D03*
%TD*%
D17*
%TO.C,D45*%
X65960000Y-175050000D03*
D18*
X68500000Y-175050000D03*
%TD*%
D10*
%TO.C,K17*%
X69000000Y-163550000D03*
X67050000Y-157500000D03*
X54850000Y-157500000D03*
X54800000Y-169550000D03*
X67050000Y-169500000D03*
%TD*%
D21*
%TO.C,R11*%
X111653333Y-115125000D03*
X121813333Y-115125000D03*
%TD*%
D11*
%TO.C,SW7*%
X68000000Y-209500000D03*
X68000000Y-214000000D03*
X68000000Y-218500000D03*
%TD*%
M02*
